Coordinates
version=1
nRows=14
nColumns=63
inDegrees=yes

Units are S.I. units (second, meters, Newtons, ...)
If the header above contains a line with 'inDegrees', this indicates whether rotational values are in degrees (yes) or radians (no).

endheader
time	pelvis_tilt	pelvis_list	pelvis_rotation	pelvis_tx	pelvis_ty	pelvis_tz	hip_flexion_r	hip_adduction_r	hip_rotation_r	knee_angle_r	knee_angle_r_beta	ankle_angle_r	subtalar_angle_r	mtp_angle_r	hip_flexion_l	hip_adduction_l	hip_rotation_l	knee_angle_l	knee_angle_l_beta	ankle_angle_l	subtalar_angle_l	mtp_angle_l	L5_S1_Flex_Ext	L5_S1_Lat_Bending	L5_S1_axial_rotation	L4_L5_Flex_Ext	L4_L5_Lat_Bending	L4_L5_axial_rotation	L3_L4_Flex_Ext	L3_L4_Lat_Bending	L3_L4_axial_rotation	L2_L3_Flex_Ext	L2_L3_Lat_Bending	L2_L3_axial_rotation	L1_L2_Flex_Ext	L1_L2_Lat_Bending	L1_L2_axial_rotation	L1_T12_Flex_Ext	L1_T12_Lat_Bending	L1_T12_axial_rotation	Abs_r3	Abs_r2	Abs_r1	Abs_t1	Abs_t2	neck_flexion	neck_bending	neck_rotation	arm_flex_r	arm_add_r	arm_rot_r	elbow_flex_r	pro_sup_r	wrist_flex_r	wrist_dev_r	arm_flex_l	arm_add_l	arm_rot_l	elbow_flex_l	pro_sup_l	wrist_flex_l	wrist_dev_l
4.372881	1.520439	-3.095711	96.276518	0.193755	0.666290	0.833207	4.723900	-0.772831	-7.459274	3.602703	0.062879	19.176462	13.727851	0.000000	6.424375	-2.479056	-2.624625	5.431753	0.094802	17.203971	9.195528	0.000000	0.254541	-0.175710	-1.113903	0.472707	-0.233694	-1.183522	0.418185	-0.427220	-1.183522	0.290914	-0.427220	-0.974666	0.236366	-0.358307	-0.905047	0.145444	-0.272174	-0.835428	1.818157	-1.987662	-6.195197	0.000000	0.000000	27.910006	3.563925	3.074641	-6.725209	-20.784844	25.746751	33.692642	80.791418	-1.288807	9.576217	2.882205	-22.692750	23.405774	36.580896	87.813193	-8.152644	10.582631
4.389831	1.578612	-2.575451	96.715588	0.193699	0.666676	0.832342	4.089454	-0.662709	-7.816433	3.603898	0.062900	19.352989	13.848719	0.000000	5.942738	-2.606919	-2.693947	5.489119	0.095803	17.427161	9.696941	0.000000	0.234561	-0.197370	-1.157105	0.435603	-0.262502	-1.229424	0.385360	-0.479885	-1.229424	0.268079	-0.479885	-1.012467	0.217813	-0.402476	-0.940148	0.134028	-0.305726	-0.867829	1.675444	-2.232686	-6.435470	0.000000	0.000000	27.868842	3.682655	3.275766	-6.568445	-20.914162	27.317878	33.528580	81.204798	-1.212099	9.863918	1.344955	-22.960417	19.877776	37.377760	87.808137	-8.632980	10.418870
4.406780	1.601832	-2.092931	97.177558	0.193642	0.667088	0.831255	3.477767	-0.575739	-8.187757	3.613467	0.063067	19.538360	13.920304	0.000000	5.462226	-2.706278	-2.877077	5.481882	0.095677	17.674651	10.410787	0.000000	0.221104	-0.222295	-1.205966	0.410613	-0.295652	-1.281338	0.363252	-0.540488	-1.281338	0.252700	-0.540488	-1.055220	0.205317	-0.453304	-0.979847	0.126339	-0.344335	-0.904474	1.579326	-2.514645	-6.707218	0.000000	0.000000	27.843803	3.579695	3.190334	-6.439768	-20.982899	28.735701	33.324937	81.648374	-1.185648	10.151425	-0.173810	-23.203965	16.591039	38.386687	87.799701	-8.797656	10.523270
4.423729	1.584104	-1.650768	97.662473	0.193581	0.667533	0.829987	2.887920	-0.520995	-8.568328	3.627207	0.063307	19.728500	13.940591	0.000000	4.986249	-2.761967	-3.022860	5.417057	0.094545	17.920119	11.121249	0.000000	0.215234	-0.250847	-1.254274	0.399712	-0.333627	-1.332666	0.353608	-0.609910	-1.332666	0.245991	-0.609910	-1.097490	0.199867	-0.511528	-1.019098	0.122985	-0.388563	-0.940706	1.537397	-2.837635	-6.975897	0.000000	0.000000	27.836674	3.214012	2.780975	-6.376889	-20.961237	29.757064	33.139168	82.392358	-1.143379	10.502357	-1.622203	-23.467547	13.634401	39.518783	87.800137	-8.386699	11.073372
4.440678	1.545185	-1.244001	98.144003	0.193497	0.668036	0.828665	2.322351	-0.482034	-8.969468	3.636200	0.063464	19.899009	13.957288	0.000000	4.516435	-2.795292	-3.177290	5.303602	0.092565	18.150981	11.872447	0.000000	0.215897	-0.279235	-1.281404	0.400942	-0.371383	-1.361492	0.354697	-0.678933	-1.361492	0.246749	-0.678933	-1.121229	0.200482	-0.569417	-1.041141	0.123364	-0.432535	-0.961053	1.542130	-3.158765	-7.126786	0.000000	0.000000	27.847768	2.513147	2.025482	-6.409136	-20.892547	30.418918	33.035504	83.029147	-1.169893	10.845453	-2.734103	-23.765861	11.776919	40.572244	87.799526	-7.779279	11.840081
4.457627	1.465887	-0.858384	98.616905	0.193388	0.668611	0.827415	1.771004	-0.479909	-9.353858	3.640733	0.063543	20.046411	13.923554	0.000000	4.047853	-2.781558	-3.291915	5.163231	0.090115	18.328310	12.555466	0.000000	0.220244	-0.307976	-1.299535	0.409014	-0.409608	-1.380756	0.361838	-0.748813	-1.380756	0.251716	-0.748813	-1.137093	0.204518	-0.628025	-1.055872	0.125847	-0.477055	-0.974651	1.573177	-3.483889	-7.227625	0.000000	0.000000	27.877558	1.739624	1.243189	-6.479146	-20.772098	30.647752	33.021024	83.755516	-1.141204	11.129612	-3.453326	-24.138240	11.009269	41.485357	87.833463	-6.641580	12.858988
4.474576	1.376310	-0.499466	99.082851	0.193187	0.669240	0.826368	1.249749	-0.492618	-9.744149	3.633358	0.063414	20.141369	13.876806	0.000000	3.600543	-2.743195	-3.251097	5.006183	0.087374	18.413392	13.033559	0.000000	0.228490	-0.332109	-1.297371	0.424329	-0.441705	-1.378457	0.375386	-0.807490	-1.378457	0.261141	-0.807490	-1.135200	0.212176	-0.677237	-1.054114	0.130559	-0.514437	-0.973028	1.632081	-3.756883	-7.215589	0.000000	0.000000	27.923316	0.863918	0.442467	-6.638912	-20.626290	30.395734	33.138943	84.310057	-1.137541	11.302572	-3.482173	-24.485376	12.349146	41.926781	87.889277	-5.894229	13.488163
4.491525	1.295042	-0.165625	99.496340	0.192942	0.669892	0.825620	0.771196	-0.504484	-10.108020	3.613101	0.063061	20.181701	13.837030	0.000000	3.177980	-2.700150	-3.115673	4.843113	0.084528	18.387348	13.314335	0.000000	0.238832	-0.348412	-1.267795	0.443535	-0.463388	-1.347032	0.392377	-0.847129	-1.347032	0.272961	-0.847129	-1.109321	0.221780	-0.710482	-1.030084	0.136469	-0.539690	-0.950846	1.705954	-3.941306	-7.051096	0.000000	0.000000	27.980864	-0.043930	-0.279651	-6.898569	-20.451601	29.552712	33.371833	84.823377	-1.091486	11.278224	-2.748972	-24.761464	15.885962	41.814221	87.952489	-5.623356	13.708782
4.508475	1.218295	0.124464	99.871731	0.192652	0.670506	0.825180	0.359647	-0.524441	-10.467990	3.582928	0.062534	20.185646	13.806784	0.000000	2.806870	-2.641774	-2.786117	4.684571	0.081761	18.228118	13.271502	0.000000	0.253213	-0.358059	-1.233086	0.470243	-0.476219	-1.310154	0.416004	-0.870585	-1.310154	0.289398	-0.870585	-1.078950	0.235134	-0.730154	-1.001882	0.144686	-0.554634	-0.924814	1.808678	-4.050437	-6.858054	0.000000	0.000000	28.043719	-0.826209	-0.774706	-7.171216	-20.270010	28.413216	33.659416	85.251775	-1.121677	11.025350	-1.520591	-24.974305	20.757099	41.319395	88.068362	-5.872987	13.597501
4.525424	1.151202	0.358753	100.183864	0.192360	0.671041	0.825073	0.038249	-0.550015	-10.818698	3.547512	0.061916	20.165056	13.808977	0.000000	2.505746	-2.575932	-2.297844	4.538756	0.079216	17.949265	12.937301	0.000000	0.271643	-0.360897	-1.199167	0.504467	-0.479993	-1.274115	0.446282	-0.877485	-1.274115	0.310460	-0.877485	-1.049271	0.252247	-0.735941	-0.974323	0.155217	-0.559030	-0.899375	1.940316	-4.082540	-6.669406	0.000000	0.000000	28.104089	-1.415869	-0.991733	-7.379770	-20.106875	27.283431	33.924575	85.536913	-1.370200	10.447021	-0.003183	-25.109860	26.236910	40.637994	88.217517	-6.412780	13.355043
4.542373	1.089916	0.530426	100.410821	0.192105	0.671488	0.825289	-0.179503	-0.587131	-11.149671	3.512140	0.061298	20.130034	13.860895	0.000000	2.281600	-2.501085	-1.724971	4.405660	0.076893	17.568872	12.388091	0.000000	0.293497	-0.358051	-1.170541	0.545053	-0.476207	-1.243699	0.482186	-0.870564	-1.243699	0.335437	-0.870564	-1.024223	0.272541	-0.730137	-0.951064	0.167704	-0.554620	-0.877905	2.096417	-4.050340	-6.510195	0.000000	0.000000	28.157433	-1.756103	-0.922342	-7.454610	-19.971124	26.418545	34.110295	85.616468	-1.929251	9.511089	1.620108	-25.143081	31.734910	39.917285	88.330479	-6.972953	13.100715
4.559322	1.036577	0.633398	100.541034	0.191901	0.671845	0.825783	-0.288277	-0.633935	-11.436470	3.476569	0.060678	20.079963	13.952729	0.000000	2.140449	-2.423652	-1.182273	4.285802	0.074801	17.136401	11.780117	0.000000	0.318438	-0.350078	-1.144238	0.591370	-0.465604	-1.215753	0.523161	-0.851181	-1.215753	0.363942	-0.851181	-1.001208	0.295701	-0.713880	-0.929693	0.181955	-0.542271	-0.858178	2.274567	-3.960157	-6.363908	0.000000	0.000000	28.204126	-1.828896	-0.620705	-7.391673	-19.862846	25.877414	34.217743	85.414009	-2.770072	8.279428	3.222277	-25.054795	36.909321	39.260117	88.306363	-7.445683	12.907104
4.576271	0.971372	0.675794	100.538956	0.191822	0.672139	0.826529	-0.291543	-0.708796	-11.661998	3.450665	0.060225	20.026334	14.118167	0.000000	2.063857	-2.321924	-0.632974	4.165917	0.072709	16.655115	11.007547	0.000000	0.344048	-0.340317	-1.113242	0.638932	-0.452622	-1.182819	0.565237	-0.827447	-1.182819	0.393213	-0.827447	-0.974087	0.319483	-0.693975	-0.904509	0.196589	-0.527151	-0.834931	2.457502	-3.849737	-6.191517	0.000000	0.000000	28.246467	-1.602048	-0.116334	-7.118714	-19.779001	25.857620	34.201707	85.012443	-3.848998	6.800649	4.748767	-24.882245	41.653417	38.734575	88.111208	-7.850923	12.714378
4.593220	0.905477	0.659410	100.404205	0.191856	0.672359	0.827475	-0.193516	-0.797283	-11.786412	3.436473	0.059978	19.975010	14.308306	0.000000	2.054050	-2.212214	-0.168583	4.054059	0.070757	16.186618	10.205882	0.000000	0.370271	-0.327888	-1.066731	0.687630	-0.436091	-1.133402	0.608318	-0.797226	-1.133402	0.423183	-0.797226	-0.933390	0.343834	-0.668629	-0.866719	0.211573	-0.507898	-0.800049	2.644810	-3.709133	-5.932840	0.000000	0.000000	28.283910	-1.053066	0.598246	-6.719404	-19.721483	26.099616	34.156136	84.417846	-4.932219	5.314491	6.161797	-24.614631	45.762634	38.411919	87.855383	-8.000334	12.788051
